<svg width="27" height="26" viewBox="0 0 27 26" fill="none" xmlns="http://www.w3.org/2000/svg">
<mask id="mask0_4_7" style="mask-type:alpha" maskUnits="userSpaceOnUse" x="0" y="0" width="27" height="26">
<path opacity="0.5" d="M24.75 11.8125V13.5C24.75 18.8033 24.75 21.455 23.1025 23.1025C21.455 24.75 18.8033 24.75 13.5 24.75C8.1967 24.75 5.54505 24.75 3.89752 23.1025C2.25 21.455 2.25 18.8033 2.25 13.5C2.25 8.1967 2.25 5.54505 3.89752 3.89752C5.54505 2.25 8.1967 2.25 13.5 2.25H15.1875" stroke="#D9D9D9" stroke-width="1.5" stroke-linecap="round"/>
<path d="M19.4635 3.15703L18.7336 3.88694L12.0231 10.5974C11.5686 11.0519 11.3413 11.2792 11.1459 11.5298C10.9153 11.8254 10.7176 12.1452 10.5564 12.4836C10.4197 12.7705 10.318 13.0753 10.1148 13.6851L9.46397 15.6375L9.04288 16.9008C8.94285 17.2009 9.02095 17.5317 9.24462 17.7554C9.46829 17.979 9.79914 18.0571 10.0992 17.9571L11.3625 17.536L13.3149 16.8852L13.3149 16.8852C13.9247 16.682 14.2296 16.5803 14.5164 16.4436C14.8548 16.2824 15.1746 16.0847 15.4702 15.8541C15.7208 15.6587 15.9481 15.4314 16.4026 14.9769L23.1131 8.26645L23.843 7.53653C25.0523 6.32716 25.0523 4.36639 23.843 3.15703C22.6336 1.94766 20.6728 1.94766 19.4635 3.15703Z" stroke="#D9D9D9" stroke-width="1.5"/>
<path opacity="0.5" d="M18.7338 3.88696C18.7338 3.88696 18.825 5.43804 20.1936 6.80663C21.5622 8.17523 23.1133 8.26647 23.1133 8.26647M11.3627 17.536L9.46417 15.6375" stroke="#D9D9D9" stroke-width="1.5"/>
</mask>
<g mask="url(#mask0_4_7)">
<rect width="27" height="26" fill="#D9D9D9"/>
</g>
</svg>
