<svg width="27" height="29" viewBox="0 0 27 29" fill="none" xmlns="http://www.w3.org/2000/svg">
<mask id="mask0_4_5" style="mask-type:alpha" maskUnits="userSpaceOnUse" x="0" y="0" width="27" height="29">
<path d="M1.44643 19.2857C1.44643 15.8765 1.44643 14.1718 2.50555 13.1127C3.56467 12.0536 5.2693 12.0536 8.67857 12.0536H18.3214C21.7307 12.0536 23.4353 12.0536 24.4944 13.1127C25.5536 14.1718 25.5536 15.8765 25.5536 19.2857C25.5536 22.695 25.5536 24.3996 24.4944 25.4588C23.4353 26.5179 21.7307 26.5179 18.3214 26.5179H8.67857C5.2693 26.5179 3.56467 26.5179 2.50555 25.4588C1.44643 24.3996 1.44643 22.695 1.44643 19.2857Z" stroke="#D9D9D9" stroke-width="1.5"/>
<circle opacity="0.5" cx="13.5" cy="19.2857" r="2.41071" stroke="#D9D9D9" stroke-width="1.5"/>
<path opacity="0.5" d="M6.26785 12.0536V9.64291C6.26785 5.64871 9.50579 2.41077 13.5 2.41077C17.4942 2.41077 20.7321 5.64871 20.7321 9.64291V12.0536" stroke="#D9D9D9" stroke-width="1.5" stroke-linecap="round"/>
</mask>
<g mask="url(#mask0_4_5)">
<rect y="1" width="27" height="28" fill="#D9D9D9"/>
</g>
</svg>
